PathFileType	4	(X/Y/Z)	/Users/itak/Documents/Research/Walk-IL/dataset/trc/00211_00009.trc
DataRate	CameraRate	NumFrames	NumMarkers	Units	OrigDataRate	OrigDataStartFrame	OrigNumFrames
100.000000	100.000000	4	53	mm	100.000000	156	627
Frame#	Time	RPSI			LPSI			L3			STRN			T10			C7			CLAV			RBAK			LBAK			LSHO			LUPA			LAEL			LAOL			LWTS			LWPS			LFRA			LIFD			LHPS			RSHO			RUPA			RAEL			RAOL			RWTS			RWPS			RFRA			RIFD			RHTS			RHPS			RBHD			LFHD			RFHD			LBHD			LHIP			RHIP			RASI			LASI			LKNE			LTHI			LANK			LTIP			LTOE			LMT1			LMT5			LHEE			RKNE			RTHI			RANK			RTIP			RTOE			RMT1			RMT5			RHEE			LHTS			
		X1	Y1	Z1	X2	Y2	Z2	X3	Y3	Z3	X4	Y4	Z4	X5	Y5	Z5	X6	Y6	Z6	X7	Y7	Z7	X8	Y8	Z8	X9	Y9	Z9	X10	Y10	Z10	X11	Y11	Z11	X12	Y12	Z12	X13	Y13	Z13	X14	Y14	Z14	X15	Y15	Z15	X16	Y16	Z16	X17	Y17	Z17	X18	Y18	Z18	X19	Y19	Z19	X20	Y20	Z20	X21	Y21	Z21	X22	Y22	Z22	X23	Y23	Z23	X24	Y24	Z24	X25	Y25	Z25	X26	Y26	Z26	X27	Y27	Z27	X28	Y28	Z28	X29	Y29	Z29	X30	Y30	Z30	X31	Y31	Z31	X32	Y32	Z32	X33	Y33	Z33	X34	Y34	Z34	X35	Y35	Z35	X36	Y36	Z36	X37	Y37	Z37	X38	Y38	Z38	X39	Y39	Z39	X40	Y40	Z40	X41	Y41	Z41	X42	Y42	Z42	X43	Y43	Z43	X44	Y44	Z44	X45	Y45	Z45	X46	Y46	Z46	X47	Y47	Z47	X48	Y48	Z48	X49	Y49	Z49	X50	Y50	Z50	X51	Y51	Z51	X52	Y52	Z52	X53	Y53	Z53	

157	1.56	-1307.763305664062	1045.119750976562	-194.9767456054688	-1306.996826171875	1051.37060546875	-315.0802307128906	-1305.479614257812	1128.2373046875	-270.4451904296875	-1052.02587890625	1309.201293945312	-279.8128356933594	-1308.736694335938	1257.042358398438	-262.3458251953125	-1237.405151367188	1516.672973632812	-270.4001159667969	-1074.076904296875	1427.232055664062	-279.0279235839844	-1313.024780273438	1380.428955078125	-193.7737884521484	-1265.46142578125	1478.59716796875	-378.7238159179688	-1180.610473632812	1477.470825195312	-441.9766235351562	-1224.826904296875	1359.360595703125	-513.7150268554688	-1232.539672851562	1149.382690429688	-539.6226806640625	-1302.564819335938	1141.06396484375	-487.0550231933594	-1159.478759765625	909.9241333007812	-482.2005004882812	-1190.51318359375	894.1668090820312	-558.6661987304688	-1220.449951171875	1040.319458007812	-552.063232421875	-1167.916137695312	713.2759399414062	-488.7692565917969	-1179.770751953125	804.8739013671875	-554.0651245117188	-1171.818115234375	1475.042724609375	-105.1801147460938	-1189.661254882812	1411.478637695312	-36.74562454223633	-1198.516235351562	1131.317626953125	10.97484111785889	-1243.401611328125	1124.041748046875	-72.99520111083984	-1071.225952148438	913.8472290039062	-52.39891052246094	-1111.774169921875	901.29052734375	21.92581367492676	-1169.954711914062	1062.586181640625	20.04379463195801	-1057.093017578125	718.66845703125	-53.52598190307617	-1030.569580078125	792.1162719726562	-42.53868865966797	-1071.820922851562	794.1304321289062	17.33381843566895	-1204.154541015625	1662.3095703125	-223.7972717285156	-1005.637756347656	1727.109619140625	-314.3505554199219	-1007.668701171875	1724.967041015625	-214.5964050292969	-1157.396240234375	1675.55322265625	-354.9986877441406	-1199.488891601562	994.2587890625	-452.6194763183594	-1215.33251953125	1000.346252441406	-84.84877014160156	-1115.3486328125	1044.174682617188	-120.8636169433594	-1101.564453125	1032.629760742188	-399.5658874511719	-1003.895385742188	538.6080932617188	-407.534423828125	-1059.957397460938	672.833251953125	-441.2524108886719	-1095.803588867188	56.67281341552734	-400.7859191894531	-1057.004150390625	311.1682739257812	-415.3010864257812	-886.4359741210938	78.28911590576172	-351.5428161621094	-951.30810546875	68.41967010498047	-307.3150024414062	-970.7699584960938	56.85326766967773	-419.3572387695312	-1157.18896484375	68.56681823730469	-349.2812805175781	-1228.968017578125	510.0921936035156	-149.6816101074219	-1173.04248046875	772.8701171875	-92.74757385253906	-1341.142822265625	39.43341827392578	-214.3453979492188	-1236.210083007812	394.803955078125	-175.4778900146484	-1126.027465820312	47.55500411987305	-225.2528533935547	-1175.746826171875	44.22947311401367	-276.1084594726562	-1235.64599609375	39.81777191162109	-170.9197235107422	-1394.400756835938	39.3884391784668	-282.8773498535156	-1134.279418945312	806.7273559570312	-502.7351989746094	
158	1.57	-1305.303100585938	1044.813354492188	-195.1356506347656	-1304.639282226562	1050.994140625	-315.2358093261719	-1303.075805664062	1127.95947265625	-270.5313720703125	-1049.407470703125	1308.723754882812	-279.9979248046875	-1306.165771484375	1256.72900390625	-262.280517578125	-1234.637329101562	1516.3193359375	-270.2390441894531	-1071.416870117188	1426.7626953125	-279.1072387695312	-1310.273193359375	1380.107299804688	-193.5842590332031	-1262.84130859375	1478.29931640625	-378.5271911621094	-1178.083740234375	1477.154541015625	-441.921875	-1222.58935546875	1359.098388671875	-513.595458984375	-1230.8046875	1149.1240234375	-539.3759155273438	-1300.719482421875	1141.007690429688	-486.6447143554688	-1158.6162109375	909.2989501953125	-482.2653503417969	-1189.845336914062	893.7566528320312	-558.6642456054688	-1219.14404296875	1040.019165039062	-551.883056640625	-1168.025024414062	712.7050170898438	-488.8944091796875	-1179.560791015625	804.4052124023438	-554.139892578125	-1168.858642578125	1474.55029296875	-105.1211318969727	-1186.693359375	1410.9697265625	-36.68118667602539	-1195.837890625	1130.829223632812	11.0064525604248	-1240.863403320312	1123.6201171875	-72.91384124755859	-1069.0712890625	913.0784301757812	-52.44944000244141	-1109.547729492188	900.6577758789062	21.93156051635742	-1167.396850585938	1062.0615234375	20.06520652770996	-1055.5048828125	717.8758544921875	-53.54832458496094	-1028.766479492188	791.16552734375	-42.69365692138672	-1069.873413085938	793.3753662109375	17.34320831298828	-1201.19189453125	1661.970581054688	-223.6485900878906	-1002.690185546875	1726.541137695312	-314.4051818847656	-1004.637512207031	1724.391479492188	-214.6351623535156	-1154.56005859375	1675.166137695312	-354.9047546386719	-1197.410034179688	993.8179321289062	-452.7020568847656	-1212.822265625	999.9978637695312	-85.05355072021484	-1112.81884765625	1043.762573242188	-121.1053695678711	-1099.28564453125	1032.287841796875	-399.7650756835938	-1001.110107421875	538.5279541015625	-406.8939819335938	-1057.458862304688	672.49853515625	-441.2471313476562	-1084.8046875	55.24490356445312	-398.5518798828125	-1050.606323242188	310.4055480957031	-413.9998474121094	-875.6303100585938	79.01276397705078	-349.2349243164062	-940.4435424804688	68.75822448730469	-305.0343322753906	-959.7403564453125	56.57461166381836	-417.0391845703125	-1146.271362304688	66.66414642333984	-347.1016235351562	-1227.755981445312	509.962646484375	-149.9071960449219	-1170.822509765625	772.5159301757812	-93.12281799316406	-1341.139770507812	39.45191955566406	-214.3525848388672	-1235.369506835938	394.6250610351562	-175.6695251464844	-1126.022094726562	47.55557250976562	-225.2638702392578	-1175.754760742188	44.21506881713867	-276.1372985839844	-1235.651245117188	39.82768630981445	-170.9257049560547	-1394.453369140625	39.46225357055664	-282.8863220214844	-1133.950439453125	805.9998168945312	-502.8833312988281	
159	1.58	-1302.758422851562	1044.492919921875	-195.3431549072266	-1302.175903320312	1050.5927734375	-315.4384765625	-1300.566162109375	1127.655395507812	-270.6608581542969	-1046.704956054688	1308.231201171875	-280.216796875	-1303.507446289062	1256.380126953125	-262.2607116699219	-1231.796020507812	1515.937866210938	-270.1133422851562	-1068.692016601562	1426.269287109375	-279.2272644042969	-1307.441772460938	1379.75634765625	-193.4330596923828	-1260.140625	1477.967895507812	-378.3630065917969	-1175.479125976562	1476.819702148438	-441.8975830078125	-1220.2724609375	1358.820434570312	-513.517578125	-1228.970947265625	1148.8505859375	-539.1845092773438	-1298.765014648438	1140.919311523438	-486.2728576660156	-1157.536987304688	908.7108764648438	-482.3868408203125	-1189.013549804688	893.34423828125	-558.713623046875	-1217.712768554688	1039.708984375	-551.7535400390625	-1167.926025390625	712.1558227539062	-489.0759582519531	-1179.153442382812	803.943359375	-554.2610473632812	-1165.82080078125	1474.033203125	-105.0987701416016	-1183.636108398438	1410.43359375	-36.64985656738281	-1193.064086914062	1130.307006835938	10.98437213897705	-1238.23193359375	1123.165893554688	-72.88698577880859	-1066.853271484375	912.2610473632812	-52.55038833618164	-1107.253295898438	899.9886474609375	21.89367866516113	-1164.762939453125	1061.503173828125	20.03155517578125	-1053.872192382812	717.0405883789062	-53.60421371459961	-1026.8994140625	790.1784057617188	-42.86208724975586	-1067.879028320312	792.5724487304688	17.30956077575684	-1198.143310546875	1661.6064453125	-223.5115661621094	-999.6561279296875	1725.953125	-314.4837341308594	-1001.525817871094	1723.77880859375	-214.69091796875	-1151.643432617188	1674.775634765625	-354.8287658691406	-1195.2275390625	993.3232421875	-452.7988586425781	-1210.236083984375	999.6369018554688	-85.28227233886719	-1110.213745117188	1043.331176757812	-121.358642578125	-1096.911499023438	1031.891357421875	-399.9855346679688	-998.321533203125	538.3652954101562	-406.3114318847656	-1054.920288085938	672.0957641601562	-441.2928466796875	-1073.997192382812	53.91431427001953	-396.2929077148438	-1044.309692382812	309.6488952636719	-412.7083129882812	-865.0424194335938	79.82115936279297	-347.0304260253906	-929.7662353515625	69.20092010498047	-302.810791015625	-948.939453125	56.38826370239258	-414.7713012695312	-1135.543212890625	64.87134552001953	-344.8800964355469	-1226.467651367188	509.8218688964844	-150.1304016113281	-1168.549560546875	772.15576171875	-93.50012969970703	-1341.135375976562	39.46868896484375	-214.3596649169922	-1234.463134765625	394.4401550292969	-175.8687744140625	-1126.013427734375	47.5550651550293	-225.2792663574219	-1175.757080078125	44.19524002075195	-276.1654663085938	-1235.65283203125	39.83747863769531	-170.9311676025391	-1394.506103515625	39.53509140014648	-282.8957824707031	-1133.4033203125	805.3074340820312	-503.0870361328125	
160	1.59	-1300.129760742188	1044.158325195312	-195.6026763916016	-1299.606201171875	1050.163452148438	-315.6930847167969	-1297.953002929688	1127.32373046875	-270.8379211425781	-1043.91845703125	1307.718383789062	-280.4620056152344	-1300.757934570312	1255.996948242188	-262.2902526855469	-1228.877685546875	1515.527709960938	-270.0262451171875	-1065.893188476562	1425.754150390625	-279.3863830566406	-1304.5302734375	1379.375	-193.3271942138672	-1257.353515625	1477.601318359375	-378.2355041503906	-1172.78955078125	1476.464111328125	-441.9061584472656	-1217.868408203125	1358.524047851562	-513.4832763671875	-1227.037963867188	1148.559814453125	-539.0509033203125	-1296.69482421875	1140.796020507812	-485.9406127929688	-1156.233764648438	908.154541015625	-482.5579223632812	-1188.014282226562	892.9258422851562	-558.814453125	-1216.153564453125	1039.387573242188	-551.6776733398438	-1167.600708007812	711.623046875	-489.3140563964844	-1178.541259765625	803.48388671875	-554.4286499023438	-1162.712280273438	1473.487670898438	-105.1159057617188	-1180.498901367188	1409.870727539062	-36.65522003173828	-1190.205444335938	1129.753173828125	10.90675354003906	-1235.507568359375	1122.679931640625	-72.91828918457031	-1064.5673828125	911.4030151367188	-52.69676208496094	-1104.886962890625	899.2874145507812	21.81285095214844	-1162.057861328125	1060.912841796875	19.93973159790039	-1052.181274414062	716.167236328125	-53.6917724609375	-1024.938110351562	789.1837158203125	-43.02502059936523	-1065.828247070312	791.7299194335938	17.23424911499023	-1195.010375976562	1661.215576171875	-223.390625	-996.5391845703125	1725.3466796875	-314.5850219726562	-998.334228515625	1723.134033203125	-214.7653656005859	-1148.64453125	1674.378540039062	-354.7740783691406	-1192.923095703125	992.775146484375	-452.9165649414062	-1207.58203125	999.2642822265625	-85.53852844238281	-1107.542602539062	1042.873901367188	-121.6221160888672	-1094.429565429688	1031.442016601562	-400.2239074707031	-995.5079956054688	538.119384765625	-405.7840576171875	-1052.321044921875	671.6288452148438	-441.385498046875	-1063.439819335938	52.68031692504883	-394.0310668945312	-1038.124267578125	308.8933715820312	-411.4338989257812	-854.7349243164062	80.70236206054688	-344.9255676269531	-919.3372802734375	69.72323608398438	-300.6524047851562	-938.4248046875	56.29283905029297	-412.5663146972656	-1125.059692382812	63.18386459350586	-342.6368103027344	-1225.089477539062	509.6651916503906	-150.3472137451172	-1166.239501953125	771.7865600585938	-93.85997772216797	-1341.1298828125	39.48441696166992	-214.3661041259766	-1233.481079101562	394.2505187988281	-176.0669555664062	-1126.002685546875	47.55414581298828	-225.2999114990234	-1175.75390625	44.1705322265625	-276.1917419433594	-1235.64990234375	39.84561920166016	-170.9360198974609	-1394.551513671875	39.59832763671875	-282.9062805175781	-1132.63330078125	804.6430053710938	-503.3521728515625	
